#!OML:ASF E:\I on waltz\Acrobat_Osman\acrobat\cartwheel_test 2\Patient 1\Session 1\acrobat.ASF
:FULLY-SPECIFIED
:DEGREES
85
root 6.78055 10.235 11.5238 -441.307 2.83644 179.047
lowerback -8.3555 -1.8611 6.18823
upperback 5.85152 -3.07115 -1.34672
thorax 10.6203 -0.911767 -5.45762
lowerneck -16.7704 -2.80491 -6.61531
upperneck 5.62151 -3.05241 7.77311
head 4.61887 -1.12394 3.23807
rclavicle 1.74931e-014 3.57812e-015
rhumerus -6.71503 5.33975 -73.2629
rradius 67.7826
rwrist -46.3623
rhand -27.5015 23.4345
rfingers 7.12502
rthumb -0.904483 -6.54333
lclavicle 1.74931e-014 3.57812e-015
lhumerus -7.48553 -6.73625 70.2162
lradius 69.9939
lwrist 56.5448
lhand -17.8749 49.3461
lfingers 7.12502
lthumb 8.39106 79.1594
rfemur -156.935 1.60769 19.953
rtibia 104.885
rfoot -24.0808 -25.7542
rtoes -34.1571
lfemur -158.31 -9.94253 -18.6762
ltibia 109.102
lfoot -196.708 203.747
ltoes -31.2543
86
root 6.70786 10.2914 11.6507 -444.202 2.95193 178.956
lowerback -6.74549 -2.252 6.80358
upperback 6.58278 -3.49911 -1.51106
thorax 10.3757 -1.03571 -5.97537
lowerneck -10.7425 -2.30198 -7.06858
upperneck -1.74571 -2.20194 7.86118
head 1.54262 -0.811881 3.77258
rclavicle 1.98785e-014 -1.90833e-014
rhumerus -2.21748 5.99631 -71.6169
rradius 64.007
rwrist -47.944
rhand -27.9105 24.1529
rfingers 7.12502
rthumb -1.29946 -5.8229
lclavicle 1.98785e-014 -1.90833e-014
lhumerus -4.23625 -7.13964 67.994
lradius 66.1727
lwrist 56.9996
lhand -17.1362 47.9359
lfingers 7.12502
lthumb 9.10396 77.7194
rfemur -155.735 0.906766 21.5226
rtibia 106.589
rfoot -24.3155 -22.4216
rtoes -31.8656
lfemur -156.317 -9.43562 -19.7043
ltibia 109.904
lfoot -196.206 200.352
ltoes -32.3901
87
root 6.6396 10.4849 11.7535 -447.48 3.68487 179.012
lowerback -4.81267 -2.67992 6.6015
upperback 7.44688 -3.79851 -1.84028
thorax 10.1231 -1.13462 -6.16096
lowerneck -12.5472 -2.08893 -6.57109
upperneck 2.38086 -2.11631 7.08674
head 2.87987 -0.787641 3.09654
rclavicle 4.77083e-015 4.77083e-015
rhumerus 0.553466 9.75862 -69.6224
rradius 60.1953
rwrist -45.1455
rhand -27.4818 24.4698
rfingers 7.12502
rthumb -0.88547 -5.50808
lclavicle 4.77083e-015 4.77083e-015
lhumerus -3.40103 -9.28376 66.0409
lradius 64.891
lwrist 56.9483
lhand -16.6712 50.3552
lfingers 7.12502
lthumb 9.5526 80.1187
rfemur -153.945 0.0122423 22.3337
rtibia 106.921
rfoot -23.8351 -19.56
rtoes -33.5457
lfemur -152.395 -9.01117 -21.8081
ltibia 109.08
lfoot -197.32 197.58
ltoes -35.8979
88
root 6.58437 10.7234 11.8212 -449.737 3.57853 179.043
lowerback -3.41713 -2.88569 7.00964
upperback 7.9227 -3.95759 -1.82003
thorax 9.77404 -1.16448 -6.30724
lowerneck -15.1907 -2.08261 -5.18668
upperneck 8.24042 -2.27943 4.61543
head 5.05893 -0.964533 2.08703
rclavicle 4.21423e-014 -1.25234e-014
rhumerus 1.59023 13.4647 -68.6682
rradius 57.5932
rwrist -38.3646
rhand -25.26 24.9704
rfingers 7.12502
rthumb 1.26041 -5.00566
lclavicle 4.21423e-014 -1.25234e-014
lhumerus -2.40174 -13.071 65.1073
lradius 62.4018
lwrist 54.676
lhand -15.0068 49.5325
lfingers 7.12502
lthumb 11.1582 79.2159
rfemur -150.071 -0.73589 22.9143
rtibia 105.017
rfoot -24.502 -18.3073
rtoes -35.3404
lfemur -148.817 -9.16772 -23.2719
ltibia 106.862
lfoot -195.676 197.819
ltoes -42.032
89
root 6.52293 11.02 11.8677 -451.568 3.85168 178.99
lowerback -2.43031 -2.94372 6.96617
upperback 8.14747 -3.92045 -1.79756
thorax 9.44313 -1.14707 -6.1951
lowerneck -15.6666 -2.19802 -4.98603
upperneck 9.72824 -2.4362 4.12496
head 5.60243 -1.06779 1.88487
rclavicle -7.95139e-016 1.78906e-015
rhumerus 0.332085 15.5138 -68.571
rradius 56.6139
rwrist -33.4058
rhand -22.3429 27.3046
rfingers 7.12502
rthumb 4.07761 -2.63613
lclavicle -7.95139e-016 1.78906e-015
lhumerus -5.24884 -14.3787 66.5755
lradius 63.1623
lwrist 53.387
lhand -13.6042 49.3426
lfingers 7.12502
lthumb 12.5107 78.9481
rfemur -146.401 -1.44744 22.4895
rtibia 102.568
rfoot -24.8516 -17.2836
rtoes -33.6526
lfemur -145.362 -9.40602 -24.1965
ltibia 104.531
lfoot -195.872 197.193
ltoes -40.2621
90
root 6.45559 11.3628 11.8753 -453.103 4.0011 178.897
lowerback -1.8677 -2.84861 6.96127
upperback 8.25898 -3.73985 -1.64991
thorax 9.26924 -1.06317 -5.98496
lowerneck -15.0725 -2.58714 -4.8809
upperneck 9.80234 -2.94549 3.65362
head 5.54299 -1.3538 1.67381
rclavicle -3.97569e-015 -2.98177e-015
rhumerus -2.56147 15.8385 -69.7841
rradius 56.5323
rwrist -30.475
rhand -24.6524 24.3603
rfingers 7.12502
rthumb 1.84729 -5.61149
lclavicle -3.97569e-015 -2.98177e-015
lhumerus -8.42604 -13.8198 68.6483
lradius 64.6267
lwrist 53.8962
lhand -12.3473 50.0333
lfingers 7.12502
lthumb 13.7223 79.5608
rfemur -143.59 -1.98147 21.7336
rtibia 99.9599
rfoot -22.1172 -16.5923
rtoes -32.177
lfemur -142.117 -9.48182 -24.1606
ltibia 101.767
lfoot -195.149 196.263
ltoes -38.2791
91
root 6.38598 11.7289 11.851 -454.325 4.09295 178.778
lowerback -2.01678 -2.72215 6.86267
upperback 8.36663 -3.58547 -1.42598
thorax 9.51975 -0.985993 -5.68863
lowerneck -14.4621 -2.70001 -4.76657
upperneck 9.6375 -3.10949 3.39712
head 5.39186 -1.45366 1.56449
rclavicle -4.77083e-015 7.7526e-015
rhumerus -5.45063 14.7024 -71.1854
rradius 55.7857
rwrist -32.3039
rhand -24.0022 25.4176
rfingers 7.12502
rthumb 2.47527 -4.54781
lclavicle -4.77083e-015 7.7526e-015
lhumerus -11.7219 -12.3896 70.8736
lradius 64.942
lwrist 55.0066
lhand -11.2098 51.2778
lfingers 7.12502
lthumb 14.8183 80.728
rfemur -141.048 -2.58455 20.8086
rtibia 97.2883
rfoot -18.5817 -15.9534
rtoes -31.3102
lfemur -139.248 -9.3219 -23.5025
ltibia 98.6357
lfoot -193.479 194.581
ltoes -37.2616
